#!OML:ASF F:\VICON\USERDATA\INSTALL\rory3\rory3.ASF
:FULLY-SPECIFIED
:DEGREES
120
root 0.242941 18.3455 32.4436 4.62182 -6.09131 2.27993
lowerback 12.2413 -3.58595 -3.90233
upperback 0.415928 -5.30772 -0.0422833
thorax -6.06294 -2.49061 3.04617
lowerneck -8.29119 4.4585 1.11041
upperneck -3.5328 5.81438 -2.41893
head 0.383444 2.86613 -0.762159
rclavicle 1.10127e-013 -1.19271e-014
rhumerus -63.9223 1.96742 -82.3567
rradius 92.1245
rwrist -5.59543
rhand -37.5228 35.3807
rfingers 7.12502
rthumb -10.579 5.66701
lclavicle 1.10127e-013 -1.19271e-014
lhumerus -20.5469 -20.9127 88.0928
lradius 120.183
lwrist 31.12
lhand -34.5734 7.40808
lfingers 7.12502
lthumb -7.73304 37.2467
rfemur -42.2704 3.55406 17.5736
rtibia 44.8602
rfoot 2.37616 -0.722673
rtoes -12.4409
lfemur 33.1107 -4.61298 -30.8307
ltibia 4.71606
lfoot 38.2672 4.00176
ltoes -2.80836
121
root 0.317021 18.3486 32.9791 3.91939 -5.40959 3.43982
lowerback 12.4207 -3.91675 -3.89439
upperback 1.11393 -5.75742 -0.493994
thorax -5.43769 -2.74468 2.61947
lowerneck -8.34724 4.39612 1.11506
upperneck -4.61669 5.70702 -2.58301
head 0.058903 2.81506 -0.828957
rclavicle -5.45664e-014 -4.96962e-015
rhumerus -62.7384 1.28689 -82.0219
rradius 92.0416
rwrist -5.29201
rhand -38.1034 34.8464
rfingers 7.12502
rthumb -11.139 5.16208
lclavicle -5.45664e-014 -4.96962e-015
lhumerus -20.039 -21.0986 88.0977
lradius 119.883
lwrist 31.0747
lhand -34.1059 4.74939
lfingers 7.12502
lthumb -7.28183 34.6041
rfemur -40.5388 1.59232 16.4007
rtibia 40.2865
rfoot 3.38612 0.970251
rtoes -11.9298
lfemur 31.8579 -5.65001 -33.0467
ltibia 11.123
lfoot 35.7289 4.7157
ltoes -0.994942
122
root 0.294698 18.3614 33.5436 4.33344 -5.87986 2.47889
lowerback 11.8536 -3.78577 -3.3358
upperback 1.32553 -5.45673 -0.0876081
thorax -4.93114 -2.62388 2.63108
lowerneck -8.49499 4.29941 0.984016
upperneck -5.36108 5.57262 -2.52178
head -0.156213 2.75192 -0.798968
rclavicle 2.04251e-014 -1.27222e-014
rhumerus -61.7887 0.546649 -81.639
rradius 91.3683
rwrist -4.87988
rhand -38.0459 35.3482
rfingers 7.12502
rthumb -11.0835 5.66086
lclavicle 2.04251e-014 -1.27222e-014
lhumerus -20.2701 -21.4124 88.4335
lradius 119.612
lwrist 30.6891
lhand -33.9995 3.89922
lfingers 7.12502
lthumb -7.17913 33.7574
rfemur -39.6902 3.35627 17.1586
rtibia 35.7661
rfoot 3.54261 -0.293759
rtoes -12.7368
lfemur 29.9956 -5.89179 -32.4494
ltibia 16.6387
lfoot 34.3816 5.07825
ltoes 0.778014
123
root 0.274475 18.3505 34.0938 4.58772 -6.24354 2.04492
lowerback 12.3331 -3.60315 -2.95671
upperback 0.975698 -5.18152 0.0487266
thorax -5.60471 -2.47246 2.57688
lowerneck -8.36172 4.17897 0.732133
upperneck -5.68925 5.43384 -2.19097
head -0.29879 2.69016 -0.667419
rclavicle 4.90998e-014 -1.09332e-014
rhumerus -61.8537 -0.218272 -81.318
rradius 91.0634
rwrist -4.57865
rhand -37.7618 35.5756
rfingers 7.12502
rthumb -10.8096 5.8738
lclavicle 4.90998e-014 -1.09332e-014
lhumerus -21.4441 -21.8429 89.1342
lradius 119.295
lwrist 30.5452
lhand -34.3762 4.02479
lfingers 7.12502
lthumb -7.54265 33.8703
rfemur -38.8328 4.68758 17.4469
rtibia 31.9028
rfoot 3.5481 -1.92408
rtoes -12.8651
lfemur 28.2678 -6.24389 -32.4035
ltibia 22.0539
lfoot 33.6772 4.66217
ltoes -2.01178
124
root 0.255367 18.3273 34.6362 4.82368 -6.80576 1.94209
lowerback 13.9021 -3.36841 -2.77407
upperback -0.114883 -4.92042 0.0261204
thorax -7.6799 -2.27948 2.57704
lowerneck -7.75158 4.0618 0.448041
upperneck -5.46101 5.31833 -1.67594
head -0.350705 2.64126 -0.477368
rclavicle -2.04748e-014 2.04748e-014
rhumerus -63.0328 -0.547692 -81.1676
rradius 91.111
rwrist -4.49155
rhand -37.7335 35.0888
rfingers 7.12502
rthumb -10.7822 5.38549
lclavicle -2.04748e-014 2.04748e-014
lhumerus -24.0517 -22.087 90.2333
lradius 119.091
lwrist 30.4374
lhand -34.5235 4.80683
lfingers 7.12502
lthumb -7.68488 34.6472
rfemur -38.0356 5.60545 17.6354
rtibia 28.6604
rfoot 3.41541 -3.74355
rtoes -13.0455
lfemur 26.2151 -5.65975 -32.274
ltibia 27.6983
lfoot 33.3386 3.79679
ltoes -5.33197
125
root 0.249453 18.2858 35.179 4.80489 -7.17491 2.16073
lowerback 13.7357 -3.25556 -3.008
upperback 0.14666 -4.79801 0.000157832
thorax -7.29512 -2.22581 2.63239
lowerneck -7.72338 3.92105 0.120365
upperneck -6.28532 5.14788 -1.4817
head -0.622587 2.56455 -0.382196
rclavicle -3.8266e-014 -1.83876e-014
rhumerus -62.0266 -0.949489 -81.1274
rradius 90.9316
rwrist -4.27297
rhand -37.8016 34.7532
rfingers 7.12502
rthumb -10.8479 5.05334
lclavicle -3.8266e-014 -1.83876e-014
lhumerus -24.4869 -22.0799 90.5468
lradius 118.374
lwrist 29.8644
lhand -34.2644 4.84889
lfingers 7.12502
lthumb -7.43477 34.6982
rfemur -37.082 5.37436 17.9307
rtibia 26.3488
rfoot 3.24642 -5.26618
rtoes -14.2541
lfemur 24.4057 -5.17776 -32.5113
ltibia 33.1835
lfoot 33.3204 3.52683
ltoes -6.21585
126
root 0.260138 18.225 35.7204 4.48982 -7.13248 2.76396
lowerback 12.627 -3.2258 -3.76207
upperback 1.26766 -4.79339 0.0893604
thorax -5.41284 -2.2716 3.01379
lowerneck -8.01031 3.83988 -0.219145
upperneck -7.69526 5.03212 -1.76888
head -1.01356 2.51902 -0.432667
rclavicle 3.13086e-014 -3.8763e-015
rhumerus -59.7103 -1.21564 -80.9015
rradius 90.7696
rwrist -4.0706
rhand -37.6984 34.5919
rfingers 7.12502
rthumb -10.7483 4.8869
lclavicle 3.13086e-014 -3.8763e-015
lhumerus -23.51 -21.8887 90.6239
lradius 117.243
lwrist 29.4417
lhand -33.6553 4.27106
lfingers 7.12502
lthumb -6.84684 34.1403
rfemur -35.9152 3.82292 18.2262
rtibia 24.8245
rfoot 3.21647 -6.12886
rtoes -13.4814
lfemur 22.8948 -4.79651 -33.0433
ltibia 38.601
lfoot 33.3775 3.45159
ltoes -6.37996
127
root 0.248754 18.1605 36.2825 4.29505 -7.65386 2.36264
lowerback 12.3834 -3.01217 -3.54002
upperback 1.58053 -4.45532 0.229286
thorax -4.97799 -2.12632 2.95304
lowerneck -8.02301 3.78092 -0.217217
upperneck -7.93811 4.94555 -1.86018
head -1.08543 2.47725 -0.465696
rclavicle 1.6934e-014 1.60519e-014
rhumerus -58.8341 -1.26425 -80.9843
rradius 90.8004
rwrist -4.03573
rhand -37.3544 34.1673
rfingers 7.12502
rthumb -10.4165 4.44533
lclavicle 1.6934e-014 1.60519e-014
lhumerus -24.1644 -21.8519 91.015
lradius 116.219
lwrist 29.2754
lhand -33.6735 4.78426
lfingers 7.12502
lthumb -6.86444 34.653
rfemur -34.7728 3.42133 19.4678
rtibia 23.8552
rfoot 3.49401 -6.98782
rtoes -12.9501
lfemur 21.3018 -3.74097 -32.2872
ltibia 44.0695
lfoot 33.3837 3.13988
ltoes -8.33107
128
root 0.246956 18.0803 36.8426 3.91587 -8.42423 1.75925
lowerback 12.8612 -2.73969 -2.81763
upperback 1.57186 -4.00996 0.270176
thorax -5.33039 -1.9116 2.55339
lowerneck -7.87016 3.67692 -0.147186
upperneck -7.7647 4.80228 -1.91829
head -1.05365 2.4042 -0.497225
rclavicle -6.30769e-014 2.5345e-015
rhumerus -58.2822 -1.34355 -81.2008
rradius 90.6455
rwrist -3.97279
rhand -36.6095 33.9345
rfingers 7.12502
rthumb -9.69792 4.17779
lclavicle -6.30769e-014 2.5345e-015
lhumerus -25.592 -21.7534 91.5606
lradius 115.187
lwrist 29.3007
lhand -33.6234 5.91038
lfingers 7.12502
lthumb -6.81606 35.7807
rfemur -33.3767 2.82437 21.0241
rtibia 23.4048
rfoot 4.7484 -6.06386
rtoes -12.5737
lfemur 19.8808 -2.32737 -31.3348
ltibia 49.5696
lfoot 33.3236 3.09909
ltoes -9.36179
129
root 0.246225 17.9861 37.3911 3.53093 -8.7689 1.10032
lowerback 13.1278 -2.62453 -2.03027
upperback 1.70471 -3.74639 0.355002
thorax -5.39823 -1.79724 2.16871
lowerneck -7.4873 3.63332 -0.150284
upperneck -7.76623 4.74359 -1.93806
head -1.11571 2.3775 -0.511761
rclavicle -8.32411e-015 1.19271e-015
rhumerus -57.1705 -1.35117 -81.4732
rradius 90.3696
rwrist -3.89365
rhand -35.6096 33.6762
rfingers 7.12502
rthumb -8.73303 3.87689
lclavicle -8.32411e-015 1.19271e-015
lhumerus -26.8593 -21.5852 91.9797
lradius 114.067
lwrist 29.3158
lhand -33.3749 6.42174
lfingers 7.12502
lthumb -6.57613 36.2996
rfemur -31.8867 1.83341 22.5596
rtibia 23.3552
rfoot 6.00744 -4.18691
rtoes -11.7711
lfemur 18.406 -1.18327 -30.1403
ltibia 55.2186
lfoot 33.1602 3.35475
ltoes -9.12158
130
root 0.244836 17.8815 37.9255 3.13477 -9.04933 0.861933
lowerback 13.2178 -2.39802 -1.65379
upperback 1.73684 -3.39341 0.376283
thorax -5.45157 -1.63082 1.92371
lowerneck -6.26262 3.50993 -0.293764
upperneck -7.97258 4.58214 -1.93385
head -1.38505 2.30902 -0.518327
rclavicle -5.13175e-014 1.53313e-014
rhumerus -56.4706 -1.34106 -81.5859
rradius 90.5572
rwrist -4.02478
rhand -35.1911 33.4676
rfingers 7.12502
rthumb -8.32921 3.65181
lclavicle -5.13175e-014 1.53313e-014
lhumerus -28.2845 -21.7615 92.7388
lradius 112.708
lwrist 29.7093
lhand -33.9825 5.63343
lfingers 7.12502
lthumb -7.16271 35.4922
rfemur -30.7393 0.768106 23.5658
rtibia 24.0968
rfoot 6.28083 -1.57831
rtoes -6.81372
lfemur 16.7021 0.108852 -29.1269
ltibia 60.8712
lfoot 33.0038 3.67188
ltoes -7.90425
131
root 0.234332 17.7835 38.4372 2.92188 -9.64448 0.679398
lowerback 14.345 -2.03407 -1.59752
upperback 0.962469 -2.91717 0.521415
thorax -6.9146 -1.36508 2.03791
lowerneck -4.33435 3.38045 -0.702615
upperneck -7.95302 4.41991 -1.81046
head -1.71522 2.2476 -0.454546
rclavicle -2.79634e-014 4.64659e-015
rhumerus -57.0547 -0.785348 -81.548
rradius 91.3804
rwrist -4.14958
rhand -35.4498 33.1185
rfingers 7.12502
rthumb -8.5789 3.31279
lclavicle -2.79634e-014 4.64659e-015
lhumerus -30.9899 -21.7503 94.1647
lradius 111.448
lwrist 30.56
lhand -35.3646 4.51926
lfingers 7.12502
lthumb -8.49666 34.3283
rfemur -30.1894 0.359472 24.4269
rtibia 25.6901
rfoot 5.85462 1.84169
rtoes 3.22066
lfemur 14.4193 1.94314 -27.6638
ltibia 66.6972
lfoot 32.5472 4.13408
ltoes -5.72381
132
root 0.224205 17.6928 38.9944 2.53618 -10.0693 -0.26275
lowerback 14.7631 -1.84849 -0.611688
upperback 0.964569 -2.49862 0.732349
thorax -7.19578 -1.18462 1.64026
lowerneck -3.52984 3.31922 -0.939798
upperneck -8.1456 4.34227 -1.63625
head -1.92528 2.21748 -0.381015
rclavicle 1.11195e-015 -1.45113e-014
rhumerus -56.4976 -0.13284 -81.9387
rradius 92.234
rwrist -4.1772
rhand -35.8002 33.3571
rfingers 7.12502
rthumb -8.91703 3.5655
lclavicle 1.11195e-015 -1.45113e-014
lhumerus -32.6713 -21.5602 94.9499
lradius 110.36
lwrist 31.4073
lhand -36.4349 5.08633
lfingers 7.12502
lthumb -9.52947 34.8508
rfemur -29.1468 -0.481258 26.0272
rtibia 27.9948
rfoot 3.58356 4.76825
rtoes 11.1806
lfemur 12.8138 3.76426 -25.1904
ltibia 72.3092
lfoot 31.4633 4.05183
ltoes -5.38243
133
root 0.213012 17.5638 39.5189 2.35636 -10.8559 -0.809309
lowerback 14.9351 -1.4929 -0.203602
upperback 1.21081 -1.95551 0.813322
thorax -7.05406 -0.934971 1.38449
lowerneck -3.88063 3.26813 -0.891613
upperneck -7.9281 4.28665 -1.53692
head -1.79575 2.18413 -0.347545
rclavicle -4.91992e-014 -7.23079e-015
rhumerus -54.9272 0.430214 -82.5007
rradius 92.9605
rwrist -4.09749
rhand -35.8124 33.3884
rfingers 7.12502
rthumb -8.9288 3.59738
lclavicle -4.91992e-014 -7.23079e-015
lhumerus -33.6822 -21.5052 95.3741
lradius 109.455
lwrist 32.5082
lhand -37.5343 5.93231
lfingers 7.12502
lthumb -10.59 35.6455
rfemur -28.2717 0.293244 26.6949
rtibia 30.7326
rfoot 0.674026 4.85846
rtoes 19.6749
lfemur 10.6774 5.76318 -23.2108
ltibia 77.911
lfoot 30.1049 4.39185
ltoes -4.1656
